<?xml version="1.0" encoding="UTF-8"?>
<svg width="20px" height="20px" viewBox="0 0 20 20" version="1.1" xmlns="http://www.w3.org/2000/svg" xmlns:xlink="http://www.w3.org/1999/xlink">
    <title>close</title>
    <g id="Page-1" stroke="none" stroke-width="1" fill="none" fill-rule="evenodd">
        <g id="close" transform="translate(1.000000, 1.000000)" fill="#000000" fill-rule="nonzero">
            <path d="M-0.707106781,-0.707106781 C-0.34662282,-1.06759074 0.220608236,-1.09532028 0.612899443,-0.790295388 L0.707106781,-0.707106781 L18.7071068,17.2928932 C19.0976311,17.6834175 19.0976311,18.3165825 18.7071068,18.7071068 C18.3466228,19.0675907 17.7793918,19.0953203 17.3871006,18.7902954 L17.2928932,18.7071068 L-0.707106781,0.707106781 C-1.09763107,0.316582489 -1.09763107,-0.316582489 -0.707106781,-0.707106781 Z" id="Path"></path>
            <path d="M17.2928932,-0.707106781 C17.6834175,-1.09763107 18.3165825,-1.09763107 18.7071068,-0.707106781 C19.0675907,-0.34662282 19.0953203,0.220608236 18.7902954,0.612899443 L18.7071068,0.707106781 L0.707106781,18.7071068 C0.316582489,19.0976311 -0.316582489,19.0976311 -0.707106781,18.7071068 C-1.06759074,18.3466228 -1.09532028,17.7793918 -0.790295388,17.3871006 L-0.707106781,17.2928932 L17.2928932,-0.707106781 Z" id="Path"></path>
        </g>
    </g>
</svg>