<?xml version="1.0" encoding="UTF-8"?>
<svg width="48px" height="48px" viewBox="0 0 48 48" version="1.1" xmlns="http://www.w3.org/2000/svg" xmlns:xlink="http://www.w3.org/1999/xlink">
    <title>iconfinder_misc-_smile__1276846</title>
    <g id="Page-1" stroke="none" stroke-width="1" fill="none" fill-rule="evenodd">
        <g id="iconfinder_misc-_smile__1276846" transform="translate(1.000000, 1.000000)" fill="#231F20" fill-rule="nonzero">
            <path d="M23,-1 C9.745166,-1 -1,9.745166 -1,23 C-1,36.254834 9.745166,47 23,47 C36.254834,47 47,36.254834 47,23 C47,9.745166 36.254834,-1 23,-1 Z M23,1 C35.1502645,1 45,10.8497355 45,23 C45,35.1502645 35.1502645,45 23,45 C10.8497355,45 1,35.1502645 1,23 C1,10.8497355 10.8497355,1 23,1 Z" id="Oval"></path>
            <path d="M32.3589374,31.2325114 C32.7828097,30.8784623 33.4134395,30.9350652 33.7674886,31.3589374 C34.1215377,31.7828097 34.0649348,32.4134395 33.6410626,32.7674886 C27.0821559,38.2459667 20.6947485,38.2459667 15.187167,34.9300448 C13.8104405,34.101166 12.8221163,33.2668483 12.2736997,32.6873775 C11.8940716,32.2862529 11.9114979,31.6533278 12.3126225,31.2736997 C12.7137471,30.8940716 13.3466722,30.9114979 13.7263003,31.3126225 L13.8377658,31.4245337 C13.8608894,31.4469194 13.8862699,31.4711089 13.9138829,31.4970078 L14.1061571,31.6721553 L14.3508473,31.8837849 C14.8875846,32.3368847 15.5131694,32.7918111 16.2187589,33.2166219 C21.0422885,36.1207 26.506733,36.1207 32.3589374,31.2325114 Z" id="Path"></path>
            <ellipse id="Oval" cx="16" cy="18" rx="3" ry="4"></ellipse>
            <ellipse id="Oval" cx="30" cy="18" rx="3" ry="4"></ellipse>
        </g>
    </g>
</svg>